<svg xmlns="http://www.w3.org/2000/svg" width="30" height="30" viewBox="0 0 173 173" fill="none">
  <g clip-path="url(#clip0_292_20)">
    <g filter="url(#filter0_d_292_20)">
      <path fill-rule="evenodd" clip-rule="evenodd" d="M20 0C8.9543 0 0 8.95431 0 20V153C0 164.046 8.95431 173 20 173H45.4097C46.431 173 47.4137 172.609 48.1562 171.908L171.746 55.1839C172.547 54.4282 173 53.3763 173 52.2758V20C173 8.9543 164.046 0 153 0H20ZM173 124.06C173 120.289 168.259 118.613 165.889 121.546L129.571 166.486C127.457 169.102 129.319 173 132.682 173H153C164.046 173 173 164.046 173 153V124.06Z" fill="#ffffff"/>
    </g>
    <g filter="url(#filter1_d_292_20)">
      <path d="M160 97L139 118" stroke="#ffffff" stroke-width="4" stroke-linecap="round"/>
    </g>
    <g filter="url(#filter2_d_292_20)">
      <path d="M113 144.5L92 165.5" stroke="#ffffff" stroke-width="4" stroke-linecap="round"/>
    </g>
  </g>
  <defs>
    <filter id="filter0_d_292_20" x="-10" y="-6" width="193" height="193" filterUnits="userSpaceOnUse" color-interpolation-filters="sRGB">
      <feFlood flood-opacity="0" result="BackgroundImageFix"/>
      <feColorMatrix in="SourceAlpha" type="matrix" values="0 0 0 0 0 0 0 0 0 0 0 0 0 0 0 0 0 0 127 0" result="hardAlpha"/>
      <feOffset dy="4"/>
      <feGaussianBlur stdDeviation="5"/>
      <feComposite in2="hardAlpha" operator="out"/>
      <feColorMatrix type="matrix" values="0 0 0 0 0 0 0 0 0 0 0 0 0 0 0 0 0 0 0.15 0"/>
      <feBlend mode="normal" in2="BackgroundImageFix" result="effect1_dropShadow_292_20"/>
      <feBlend mode="normal" in="SourceGraphic" in2="effect1_dropShadow_292_20" result="shape"/>
    </filter>
    <filter id="filter1_d_292_20" x="127" y="89" width="45" height="45" filterUnits="userSpaceOnUse" color-interpolation-filters="sRGB">
      <feFlood flood-opacity="0" result="BackgroundImageFix"/>
      <feColorMatrix in="SourceAlpha" type="matrix" values="0 0 0 0 0 0 0 0 0 0 0 0 0 0 0 0 0 0 127 0" result="hardAlpha"/>
      <feOffset dy="4"/>
      <feGaussianBlur stdDeviation="5"/>
      <feComposite in2="hardAlpha" operator="out"/>
      <feColorMatrix type="matrix" values="0 0 0 0 0 0 0 0 0 0 0 0 0 0 0 0 0 0 0.15 0"/>
      <feBlend mode="normal" in2="BackgroundImageFix" result="effect1_dropShadow_292_20"/>
      <feBlend mode="normal" in="SourceGraphic" in2="effect1_dropShadow_292_20" result="shape"/>
    </filter>
    <filter id="filter2_d_292_20" x="80" y="136.5" width="45" height="45" filterUnits="userSpaceOnUse" color-interpolation-filters="sRGB">
      <feFlood flood-opacity="0" result="BackgroundImageFix"/>
      <feColorMatrix in="SourceAlpha" type="matrix" values="0 0 0 0 0 0 0 0 0 0 0 0 0 0 0 0 0 0 127 0" result="hardAlpha"/>
      <feOffset dy="4"/>
      <feGaussianBlur stdDeviation="5"/>
      <feComposite in2="hardAlpha" operator="out"/>
      <feColorMatrix type="matrix" values="0 0 0 0 0 0 0 0 0 0 0 0 0 0 0 0 0 0 0.15 0"/>
      <feBlend mode="normal" in2="BackgroundImageFix" result="effect1_dropShadow_292_20"/>
      <feBlend mode="normal" in="SourceGraphic" in2="effect1_dropShadow_292_20" result="shape"/>
    </filter>
    <clipPath id="clip0_292_20">
      <rect width="173" height="173" fill="white"/>
    </clipPath>
  </defs>
</svg>